<?xml version="1.0" encoding="UTF-8"?>
<svg width="16px" height="16px" viewBox="0 0 16 16" version="1.1" xmlns="http://www.w3.org/2000/svg" xmlns:xlink="http://www.w3.org/1999/xlink">
    <!-- Generator: sketchtool 50.2 (55047) - http://www.bohemiancoding.com/sketch -->
    <title>753A742C-C4FE-4115-A0A1-6B02BB274450</title>
    <desc>Created with sketchtool.</desc>
    <defs>
        <path d="M15.4545455,6.54545455 L8,6.54545455 L8,9.63636364 L12.2909091,9.63636364 C11.8909091,11.6 10.2181818,12.7272727 8,12.7272727 C5.38181818,12.7272727 3.27272727,10.6181818 3.27272727,8 C3.27272727,5.38181818 5.38181818,3.27272727 8,3.27272727 C9.12727273,3.27272727 10.1454545,3.67272727 10.9454545,4.32727273 L13.2727273,2 C11.8545455,0.763636364 10.0363636,0 8,0 C3.56363636,0 0,3.56363636 0,8 C0,12.4363636 3.56363636,16 8,16 C12,16 15.6363636,13.0909091 15.6363636,8 C15.6363636,7.52727273 15.5636364,7.01818182 15.4545455,6.54545455 Z" id="path-1"></path>
        <path d="M15.4545455,6.54545455 L8,6.54545455 L8,9.63636364 L12.2909091,9.63636364 C11.8909091,11.6 10.2181818,12.7272727 8,12.7272727 C5.38181818,12.7272727 3.27272727,10.6181818 3.27272727,8 C3.27272727,5.38181818 5.38181818,3.27272727 8,3.27272727 C9.12727273,3.27272727 10.1454545,3.67272727 10.9454545,4.32727273 L13.2727273,2 C11.8545455,0.763636364 10.0363636,0 8,0 C3.56363636,0 0,3.56363636 0,8 C0,12.4363636 3.56363636,16 8,16 C12,16 15.6363636,13.0909091 15.6363636,8 C15.6363636,7.52727273 15.5636364,7.01818182 15.4545455,6.54545455 Z" id="path-3"></path>
        <path d="M15.4545455,6.54545455 L8,6.54545455 L8,9.63636364 L12.2909091,9.63636364 C11.8909091,11.6 10.2181818,12.7272727 8,12.7272727 C5.38181818,12.7272727 3.27272727,10.6181818 3.27272727,8 C3.27272727,5.38181818 5.38181818,3.27272727 8,3.27272727 C9.12727273,3.27272727 10.1454545,3.67272727 10.9454545,4.32727273 L13.2727273,2 C11.8545455,0.763636364 10.0363636,0 8,0 C3.56363636,0 0,3.56363636 0,8 C0,12.4363636 3.56363636,16 8,16 C12,16 15.6363636,13.0909091 15.6363636,8 C15.6363636,7.52727273 15.5636364,7.01818182 15.4545455,6.54545455 Z" id="path-5"></path>
        <path d="M15.4545455,6.54545455 L8,6.54545455 L8,9.63636364 L12.2909091,9.63636364 C11.8909091,11.6 10.2181818,12.7272727 8,12.7272727 C5.38181818,12.7272727 3.27272727,10.6181818 3.27272727,8 C3.27272727,5.38181818 5.38181818,3.27272727 8,3.27272727 C9.12727273,3.27272727 10.1454545,3.67272727 10.9454545,4.32727273 L13.2727273,2 C11.8545455,0.763636364 10.0363636,0 8,0 C3.56363636,0 0,3.56363636 0,8 C0,12.4363636 3.56363636,16 8,16 C12,16 15.6363636,13.0909091 15.6363636,8 C15.6363636,7.52727273 15.5636364,7.01818182 15.4545455,6.54545455 Z" id="path-7"></path>
    </defs>
    <g id="Page-1" stroke="none" stroke-width="1" fill="none" fill-rule="evenodd">
        <g id="Desktop-/-0.8" transform="translate(-1345.000000, -24.000000)">
            <g id="header">
                <g id="nav" transform="translate(871.000000, 23.000000)">
                    <g id="sign-in" transform="translate(474.000000, 0.000000)">
                        <g id="icons-/-google" transform="translate(0.000000, 1.000000)">
                            <g id="Clipped">
                                <mask id="mask-2" fill="white">
                                    <use xlink:href="#path-1"></use>
                                </mask>
                                <g id="a"></g>
                                <polygon id="Shape" fill="#FBBC05" fill-rule="nonzero" mask="url(#mask-2)" points="-0.727272727 12.7272727 -0.727272727 3.27272727 5.45454545 8"></polygon>
                            </g>
                            <g id="Clipped">
                                <mask id="mask-4" fill="white">
                                    <use xlink:href="#path-3"></use>
                                </mask>
                                <g id="a"></g>
                                <polygon id="Shape" fill="#EA4335" fill-rule="nonzero" mask="url(#mask-4)" points="-0.727272727 3.27272727 5.45454545 8 8 5.78181818 16.7272727 4.36363636 16.7272727 -0.727272727 -0.727272727 -0.727272727"></polygon>
                            </g>
                            <g id="Clipped">
                                <mask id="mask-6" fill="white">
                                    <use xlink:href="#path-5"></use>
                                </mask>
                                <g id="a"></g>
                                <polygon id="Shape" fill="#34A853" fill-rule="nonzero" mask="url(#mask-6)" points="-0.727272727 12.7272727 10.1818182 4.36363636 13.0545455 4.72727273 16.7272727 -0.727272727 16.7272727 16.7272727 -0.727272727 16.7272727"></polygon>
                            </g>
                            <g id="Clipped">
                                <mask id="mask-8" fill="white">
                                    <use xlink:href="#path-7"></use>
                                </mask>
                                <g id="a"></g>
                                <polygon id="Shape" fill="#4285F4" fill-rule="nonzero" mask="url(#mask-8)" points="16.7272727 16.7272727 5.45454545 8 4 6.90909091 16.7272727 3.27272727"></polygon>
                            </g>
                        </g>
                    </g>
                </g>
            </g>
        </g>
    </g>
</svg>