<?xml version="1.0" encoding="utf-8"?>
<!-- Generator: Adobe Illustrator 22.0.1, SVG Export Plug-In . SVG Version: 6.00 Build 0)  -->
<svg version="1.1" id="Layer_1" xmlns="http://www.w3.org/2000/svg" xmlns:xlink="http://www.w3.org/1999/xlink" x="0px" y="0px"
	 viewBox="0 0 313.7 98.2" style="enable-background:new 0 0 313.7 98.2;" xml:space="preserve">
<style type="text/css">
	.st0{fill:#FFFFFF;}
</style>
<g>
	<g>
		<path class="st0" d="M49.9,3.1c-25.4,0-46,20.6-46,46c0,25.4,20.6,46,46,46c25.4,0,46-20.6,46-46C95.9,23.7,75.3,3.1,49.9,3.1z
			 M25.7,49.1c0-3.4,2.8-5.2,6.2-5.2h27.2c3.4,0,6.2,1.7,6.2,5.2c0,3.4-2.8,5.2-6.2,5.2H31.9C28.5,54.3,25.7,52.5,25.7,49.1z
			 M65,70.4H37.8c-3.4,0-6.2-1.7-6.2-5.2c0-3.4,2.8-5.2,6.2-5.2H65c3.4,0,6.2,1.7,6.2,5.2C71.2,68.6,68.4,70.4,65,70.4z M65,38.2
			H37.8c-3.4,0-6.2-1.7-6.2-5.2c0-3.4,2.8-5.2,6.2-5.2H65c3.4,0,6.2,1.7,6.2,5.2C71.2,36.4,68.4,38.2,65,38.2z"/>
	</g>
	<g>
		<path class="st0" d="M127.8,44.5v4.3c0,1.9-1.4,2.8-3.2,2.8h-12.4v2.2c0,3.2,2.7,4.6,5.1,4.8c1.5,0.1,3-0.6,3.7-2
			c2-3.6,7.4-0.1,5.1,3.2c-2.2,3-5.4,4.2-9.3,4.2c-6.1,0-10.9-4.3-10.9-10.2v-9.4c0-5.8,4.9-10.1,11-10.1
			C122.9,34.3,127.8,38.6,127.8,44.5z M112.2,46.6h9.3v-2.2c0-2.7-2.1-4.5-4.6-4.5s-4.6,1.9-4.6,4.5V46.6z"/>
		<path class="st0" d="M151.3,64c-1.1,0-1.9-0.5-2.5-1.3l-5.4-8.8l-5.4,8.7c-0.6,0.9-1.5,1.4-2.5,1.4c-2.2,0-4-2.5-2.6-4.4v0.1
			l7.1-10.8l-6.7-10.3c-0.9-1.7,0.2-4.3,2.6-4.3c1.2,0,2,0.3,2.7,1.2l4.9,8.3l4.9-8.3c0.6-0.9,1.5-1.2,2.7-1.2
			c2.2,0,3.8,2.5,2.6,4.3c-2.3,3.6-4.5,6.7-6.7,10.3l7.1,10.8C155,61.4,153.7,64,151.3,64z"/>
		<path class="st0" d="M167.4,75.6c0,1.5-1.4,2.7-3.2,2.7c-1.7,0-3.1-1.2-3.1-2.7V37.2c0-1.6,1.4-2.8,3.1-2.8c1.2,0,2.5,0.4,3.1,2.6
			c1.4-1.9,3.3-2.5,5.4-2.7c4.8-0.4,10.3,3.3,10.3,10v10.1c0.5,5.8-4.6,9.7-9.6,9.6c-2.2,0-4.3-0.4-5.9-2.1V75.6z M176.8,44.2
			c0-2.8-2.2-4.2-4.8-4.2c-2.6,0-4.6,1.5-4.6,4.3v9.8c0,2.7,2,4.3,4.6,4.3c2.5,0,4.8-1.4,4.8-4.1V44.2z"/>
		<path class="st0" d="M211.5,44.5v4.3c0,1.9-1.4,2.8-3.2,2.8H196v2.2c0,3.2,2.7,4.6,5.1,4.8c1.5,0.1,3-0.6,3.7-2
			c2-3.6,7.4-0.1,5.1,3.2c-2.2,3-5.4,4.2-9.3,4.2c-6.1,0-10.9-4.3-10.9-10.2v-9.4c0-5.8,4.9-10.1,11-10.1
			C206.7,34.3,211.5,38.6,211.5,44.5z M196,46.6h9.3v-2.2c0-2.7-2.1-4.5-4.6-4.5s-4.6,1.9-4.6,4.5V46.6z"/>
		<path class="st0" d="M230,34.1c4.6-0.1,8.5,2.8,8.5,8.2c0,3.3-5.8,3.6-5.8,0.1c0-2.4-2-3-4-3c-2.7,0-4.8,1.9-4.8,4.9v16.9
			c0,1.6-1.4,2.8-3.2,2.8c-1.8,0-3.2-1.2-3.2-2.8V37.1c0-3.6,6-4,6,0.3C225.7,34.7,227.6,34.1,230,34.1z"/>
		<path class="st0" d="M247.5,28.8c-5.4,0-5.4-7.7,0-7.7S253,28.8,247.5,28.8z M250.7,37.2v24c0,1.6-1.4,2.8-3.1,2.8
			c-1.8,0-3.2-1.2-3.2-2.8v-24c0-1.6,1.4-2.8,3.2-2.8C249.3,34.3,250.7,35.6,250.7,37.2z"/>
		<path class="st0" d="M268.7,64.2c-5.2-0.1-10-2.8-10-10V37.1c0-1.5,1.4-2.8,3.1-2.8c1.8,0,3.2,1.2,3.2,2.8v17c0,2.7,2,4.3,4.6,4.3
			c2.5,0,4.6-1.6,4.6-4.3v-17c0-1.5,1.4-2.8,3.1-2.8c1.8,0,3.2,1.2,3.2,2.8v24.4c0.1,3.2-5.9,3.9-6-0.2
			C273,63.6,270.8,64.2,268.7,64.2z"/>
		<path class="st0" d="M286.2,58.2c-1.8-3.3,3.9-5.8,5.6-2.5c1.1,2.4,3.2,3.2,5.6,3.2c2.4,0,3.9-1.4,3.9-3.4c0-3.3-6.9-4-9.5-5.3
			c-2.3-1.1-5.4-3.2-5.4-7.5c0-4.7,4.3-8.3,10.1-8.3c4.2,0,7.7,1.5,9.4,4.6c2.5,4.5-4.1,6.7-5.2,3c-0.5-1.7-2.1-2.2-4.2-2.2
			c-1.5,0-4,0.6-4,2.9c0,1,0.4,1.8,2,2.5c4.8,2.2,13.1,3.2,13.1,10.3c0,5.8-5,8.8-10.1,8.8C292.1,64.3,288.4,62.9,286.2,58.2z"/>
	</g>
</g>
</svg>
