<?xml version="1.0" encoding="utf-8"?>
<!-- Generator: Adobe Illustrator 16.0.0, SVG Export Plug-In . SVG Version: 6.00 Build 0)  -->
<!DOCTYPE svg PUBLIC "-//W3C//DTD SVG 1.1//EN" "http://www.w3.org/Graphics/SVG/1.1/DTD/svg11.dtd">
<svg version="1.1" id="Layer_1" xmlns="http://www.w3.org/2000/svg" xmlns:xlink="http://www.w3.org/1999/xlink" x="0px" y="0px"
	 width="261.333px" height="78.334px" viewBox="0 0 261.333 78.334" enable-background="new 0 0 261.333 78.334"
	 xml:space="preserve">
<g>
	<path fill="#FFFFFF" d="M103.926,46.437l3.709-24.578h7.566v34.617h-5.143V31.65l-3.758,24.825h-5.145l-4.055-24.479v24.479h-4.748
		V21.858h7.566L103.926,46.437z"/>
	<path fill="#FFFFFF" d="M136.766,56.476h-5.488l-0.941-6.28h-6.676l-0.939,6.28h-4.994l5.539-34.617h7.961L136.766,56.476z
		 M124.354,45.497h5.242l-2.621-17.507L124.354,45.497z"/>
	<path fill="#FFFFFF" d="M147.4,37.188h7.615v10.979c0,5.538-2.77,8.703-8.109,8.703c-5.342,0-8.111-3.165-8.111-8.703V30.166
		c0-5.538,2.77-8.703,8.111-8.703c5.34,0,8.109,3.165,8.109,8.703v3.363h-5.143V29.82c0-2.473-1.088-3.412-2.818-3.412
		c-1.732,0-2.82,0.939-2.82,3.412v18.693c0,2.473,1.088,3.363,2.82,3.363c1.73,0,2.818-0.891,2.818-3.363v-6.38H147.4V37.188z"/>
	<path fill="#FFFFFF" d="M163.969,36.447h7.469v4.945h-7.469V51.53h9.396v4.945h-14.836V21.858h14.836v4.945h-9.396V36.447z"/>
	<path fill="#FFFFFF" d="M184.691,26.408c-1.73,0-2.818,0.939-2.818,3.412v3.709h-5.143v-3.363c0-5.538,2.77-8.703,8.109-8.703
		c5.342,0,8.111,3.165,8.111,8.703c0,10.88-10.832,14.936-10.832,20.623c0,0.247,0,0.494,0.051,0.741h10.285v4.945H176.73v-4.253
		c0-10.188,10.779-11.869,10.779-21.858C187.51,27.249,186.422,26.408,184.691,26.408z"/>
	<path fill="#FFFFFF" d="M204.475,37.188h7.617v10.979c0,5.538-2.77,8.703-8.111,8.703c-5.34,0-8.109-3.165-8.109-8.703V30.166
		c0-5.538,2.77-8.703,8.109-8.703c5.342,0,8.111,3.165,8.111,8.703v3.363h-5.145V29.82c0-2.473-1.088-3.412-2.818-3.412
		s-2.818,0.939-2.818,3.412v18.693c0,2.473,1.088,3.363,2.818,3.363s2.818-0.891,2.818-3.363v-6.38h-2.473V37.188z"/>
	<path fill="#FFFFFF" d="M221.045,36.447h7.467v4.945h-7.467V51.53h9.396v4.945h-14.836V21.858h14.836v4.945h-9.396V36.447z"/>
	<path fill="#FFFFFF" d="M238.65,31.402v25.073h-4.895V21.858h6.824l5.588,20.721V21.858h4.848v34.617h-5.59L238.65,31.402z"/>
</g>
<g>
	<path fill="#FFFFFF" d="M40.359,45.345l-8.93-4.737v-2.622l8.93-4.708v3.085l-6.22,2.905l6.22,3.016V45.345z"/>
	<path fill="#FFFFFF" d="M47.091,45.355v-3.062l6.242-2.994l-6.242-2.969v-3.043l8.94,4.73v2.594L47.091,45.355z"/>
</g>
<path fill="#FFFFFF" d="M17.74,46.515c0.592,2.037,1.416,4.001,2.459,5.843l-2.969,3.747c-0.971,1.225-0.861,2.97,0.229,4.074
	l5.119,5.116c1.102,1.103,2.848,1.2,4.072,0.229l3.723-2.945c1.916,1.102,3.951,1.964,6.074,2.569l0.557,4.789
	c0.182,1.552,1.492,2.717,3.045,2.717h7.238c1.551,0,2.861-1.165,3.041-2.717l0.533-4.618c2.282-0.595,4.461-1.479,6.512-2.632
	l3.6,2.849c1.227,0.971,2.973,0.861,4.074-0.229l5.117-5.117c1.102-1.104,1.199-2.848,0.23-4.072l-2.801-3.553
	c1.164-2.014,2.072-4.159,2.682-6.401l4.314-0.498c1.551-0.181,2.717-1.492,2.717-3.042v-7.24c0-1.552-1.166-2.859-2.717-3.042
	l-4.256-0.498c-0.582-2.218-1.455-4.34-2.57-6.328l2.619-3.311c0.971-1.224,0.861-2.97-0.23-4.072l-5.105-5.104
	c-1.102-1.104-2.848-1.201-4.074-0.231l-3.213,2.547c-2.084-1.225-4.314-2.158-6.654-2.788l-0.485-4.159
	c-0.184-1.552-1.492-2.716-3.045-2.716h-7.238c-1.551,0-2.861,1.164-3.043,2.716l-0.484,4.159c-2.4,0.642-4.693,1.612-6.826,2.884
	l-3.334-2.643c-1.225-0.97-2.971-0.86-4.072,0.231l-5.119,5.115c-1.102,1.104-1.199,2.849-0.229,4.075l2.787,3.526
	c-1.113,2.013-1.965,4.159-2.521,6.391l-4.461,0.509c-1.553,0.183-2.717,1.492-2.717,3.044v7.238c0,1.552,1.164,2.861,2.717,3.042
	L17.74,46.515z M43.962,21.871c9.385,0,17.03,7.643,17.03,17.029S53.348,55.93,43.962,55.93c-9.385,0-17.029-7.643-17.029-17.029
	S34.578,21.871,43.962,21.871L43.962,21.871z M43.962,26.934"/>
<path fill="none" stroke="#FFFFFF" stroke-width="0.7789" stroke-miterlimit="10" d="M43.962,23.818
	c8.313,0,15.083,6.768,15.083,15.082c0,8.312-6.77,15.082-15.083,15.082c-8.312,0-15.082-6.77-15.082-15.082
	C28.88,30.586,35.65,23.818,43.962,23.818L43.962,23.818z"/>
</svg>
